<svg id="Layer_1" data-name="Layer 1" xmlns="http://www.w3.org/2000/svg" viewBox="0 0 571.29 178.39"><defs><style>.cls-1{fill:#fff;}.cls-1,.cls-2{stroke:#f36e21;stroke-width:5px;}.cls-1,.cls-2,.cls-3{stroke-miterlimit:10;}.cls-2,.cls-3{fill:none;}.cls-3{stroke:#231f20;stroke-width:3px;}.cls-4{font-size:88px;font-family:Calibri-Bold, Calibri;font-weight:700;}.cls-4,.cls-5{fill:#231f20;}.cls-5{font-size:27px;font-family:Calibri;}.cls-6{letter-spacing:-0.03em;}.cls-7{letter-spacing:0em;}</style></defs><circle class="cls-1" cx="173.4" cy="25.55" r="11.57"/><circle class="cls-1" cx="102.25" cy="77.62" r="11.57"/><circle class="cls-1" cx="102.25" cy="149.62" r="11.57"/><line class="cls-2" x1="163.79" y1="32" x2="111.65" y2="70.89"/><path class="cls-2" d="M124.6,386.7H185s2.07,1.16,2.36,1.85-.32,2.9-.32,2.9l-64.15,57.34" transform="translate(-11.56 -304.93)"/><circle class="cls-1" cx="55.34" cy="77.62" r="11.57"/><circle class="cls-1" cx="217.97" cy="120.91" r="11.57"/><path class="cls-2" d="M56.1,386.7,18.16,418.45s-4.79,3.43-4,5.54,7,1.85,7,1.85H218" transform="translate(-11.56 -304.93)"/><line class="cls-3" x1="249.68" x2="249.68" y2="178.39"/><text class="cls-4" transform="translate(263.85 89.77)">Softsanc</text><text class="cls-5" transform="translate(266.56 128.91)">Ma<tspan class="cls-6" x="36.02" y="0">k</tspan><tspan class="cls-7" x="47.42" y="0">e it Simple</tspan></text></svg>